<?xml version="1.0" encoding="UTF-8" standalone="no"?>
<svg
   xmlns:dc="http://purl.org/dc/elements/1.1/"
   xmlns:cc="http://creativecommons.org/ns#"
   xmlns:rdf="http://www.w3.org/1999/02/22-rdf-syntax-ns#"
   xmlns:svg="http://www.w3.org/2000/svg"
   xmlns="http://www.w3.org/2000/svg"
   xmlns:sodipodi="http://sodipodi.sourceforge.net/DTD/sodipodi-0.dtd"
   xmlns:inkscape="http://www.inkscape.org/namespaces/inkscape"
   id="svg2"
   viewBox="0 0 4.2333331 4.2333334"
   version="1.1"
   width="16"
   height="16"
   sodipodi:docname="state-warning.svg"
   inkscape:export-filename="/home/alx/Desktop/nextcloud-icons-mysuggestion/state-warning-monochrome.png"
   inkscape:export-xdpi="96"
   inkscape:export-ydpi="96"
   inkscape:version="0.91 r13725">
  <sodipodi:namedview
     pagecolor="#ffffff"
     bordercolor="#666666"
     borderopacity="1"
     objecttolerance="10"
     gridtolerance="10"
     guidetolerance="10"
     inkscape:pageopacity="0"
     inkscape:pageshadow="2"
     inkscape:window-width="1920"
     inkscape:window-height="991"
     id="namedview15"
     showgrid="true"
     inkscape:pagecheckerboard="false"
     inkscape:zoom="14.75"
     inkscape:cx="4.0179014"
     inkscape:cy="6.9152544"
     inkscape:window-x="0"
     inkscape:window-y="0"
     inkscape:window-maximized="1"
     inkscape:current-layer="svg2">
    <inkscape:grid
       type="xygrid"
       id="grid4537" />
  </sodipodi:namedview>
  <metadata
     id="metadata14">
    <rdf:RDF>
      <cc:Work
         rdf:about="">
        <dc:format>image/svg+xml</dc:format>
        <dc:type
           rdf:resource="http://purl.org/dc/dcmitype/StillImage" />
        <dc:title />
      </cc:Work>
    </rdf:RDF>
  </metadata>
  <defs
     id="defs12" />
  <path
     d="m 2.1199765,0.39642259 c 0.41116,0 0.75671,0.28045 0.86519,0.65774941 0.093927,-0.20002955 0.29448,-0.34130941 0.52837,-0.34130941 0.3238,0.001 0.58593,0.26357951 0.58738,0.58736941 -0.00146,0.3238 -0.26358,0.58593 -0.58738,0.58738 -0.23416,0 -0.43471,-0.14208 -0.52917,-0.34184 -0.10795,0.37756 -0.4535,0.65775 -0.86466,0.65775 -0.41354,0 -0.76121,-0.2831 -0.8673,-0.6641 -0.093927,0.21047 -0.30213005,0.34669 -0.53261005,0.34845 -0.3238,-10e-4 -0.58593,-0.26358 -0.58738,-0.58737 0.00116,-0.3240099 0.26337,-0.58645941 0.58738,-0.58790941 0.23707,0 0.44080005,0.14472981 0.53340005,0.34845941 0.10583,-0.38099941 0.45323,-0.66410941 0.86678,-0.66410941 z m 0,0.34528 c -0.31062,0 -0.55827,0.24790946 -0.5588,0.55826941 -0.00177,0.30935 0.24945,0.56057 0.5588,0.5588 0.30893,10e-4 0.55975,-0.24934 0.55827,-0.55827 0,-0.31088995 -0.24791,-0.55879941 -0.55827,-0.55879941 z M 0.72037645,1.057342 c -0.13484,-0.001 -0.24461,0.10805 -0.24342,0.24289 0,0.136 0.10716,0.24236 0.24342,0.24236 0.13436,0.001 0.24358,-0.108 0.24209,-0.24236 0.00164,-0.13461 -0.10775,-0.24423 -0.24236,-0.24289 z m 2.79320005,0 c -0.13484,-0.001 -0.24461,0.10805 -0.24342,0.24289 0,0.136 0.10716,0.24236 0.24342,0.24236 0.13451,0.001 0.24397,-0.10785 0.24262,-0.24236 0.00148,-0.13475 -0.10813,-0.24438 -0.24289,-0.24289 z"
     id="path8"
     style="fill:#ffffff;fill-opacity:1;stroke-width:0.26458001" />
  <path
     inkscape:connector-curvature="0"
     id="path8-5-3"
     d="M 3.0575468,2.4624643 V 3.2824708"
     style="fill:none;stroke:#ffffff;stroke-width:0.31749999;stroke-linecap:round;stroke-linejoin:round;stroke-miterlimit:4;stroke-dasharray:none" />
  <circle
     id="circle10"
     r="0.20614223"
     cy="3.7838566"
     cx="3.0535576"
     style="fill:#fcffff;stroke-width:0.62329465" />
</svg>
